<svg
  width="130"
  height="24"
  viewBox="0 0 130 24"
  fill="none"
  xmlns="http://www.w3.org/2000/svg"
>
  <path
    fill-rule="evenodd"
    clip-rule="evenodd"
    d="M55.6531 4.31779H56.3179C56.4042 4.38621 56.4826 4.46737 56.553 4.56125C56.6179 4.65864 56.6504 4.7398 56.6504 4.80473C56.6504 4.90212 56.6017 4.95082 56.5043 4.95082C56.4177 4.95082 56.3311 4.86966 56.2445 4.70734C56.0606 4.49091 55.8171 4.38269 55.5141 4.38269C55.2111 4.38269 54.9568 4.49632 54.7512 4.72357C54.5564 4.94 54.459 5.22136 54.459 5.56765C54.459 5.90311 54.578 6.18447 54.8161 6.41173C55.065 6.63898 55.3842 6.7526 55.7738 6.7526C56.1634 6.7526 56.4826 6.61192 56.7315 6.33056C56.7576 6.30112 56.7822 6.27091 56.8056 6.23992V11.2652H55.7992V11.5249H60.2073C60.1691 11.6895 60.1499 11.8572 60.1499 12.0281C60.1499 12.5367 60.3123 12.9696 60.6369 13.3267C60.9615 13.6838 61.389 13.884 61.9193 13.9273C62.6551 14.8471 63.6074 15.307 64.7761 15.307C65.7609 15.307 66.605 15.0148 67.3084 14.4305C68.0118 13.8461 68.3635 13.1373 68.3635 12.304C68.3635 11.7738 68.1795 11.3463 67.8116 11.0217C67.4436 10.697 66.9458 10.5347 66.3182 10.5347C66.026 10.5347 65.4146 10.6429 64.4839 10.8594C63.5641 11.0758 62.8932 11.184 62.4711 11.184C62.0491 11.184 61.7515 11.1515 61.5784 11.0866C61.4052 11.0109 61.3187 10.8648 61.3187 10.6483C61.3187 10.3345 61.6649 10.0315 62.3575 9.73934C62.9202 9.98823 63.5587 10.1127 64.2729 10.1127C65.3118 10.1127 66.1937 9.83673 66.9188 9.28483C67.4263 8.89852 67.7562 8.39821 67.9084 7.7839V7.79147C67.9084 9.00348 68.3034 9.98283 69.0934 10.7295C69.8834 11.4654 70.9168 11.8333 72.1938 11.8333C73.4707 11.8333 74.5042 11.4654 75.2941 10.7295C76.0841 9.98283 76.4791 9.00348 76.4791 7.79147C76.4791 6.57946 76.0841 5.60552 75.2941 4.86966C74.5042 4.12298 73.4707 3.74963 72.1938 3.74963C70.9168 3.74963 69.8834 4.12298 69.0934 4.86966C68.5286 5.39581 68.1657 6.04366 68.0047 6.81323C67.9687 5.54469 67.347 4.64792 66.1396 4.12297C65.4795 3.7875 65.1495 3.333 65.1495 2.75946C65.1495 2.30496 65.328 1.94244 65.6851 1.6719C65.7825 1.60697 65.8637 1.5745 65.9286 1.5745C66.026 1.5745 66.0747 1.6232 66.0747 1.7206C66.0747 1.81799 65.9935 1.90456 65.8312 1.98031C65.6148 2.16428 65.5066 2.41317 65.5066 2.727C65.5066 3.04082 65.6148 3.30054 65.8312 3.50615C66.0585 3.70093 66.3398 3.79833 66.6753 3.79833C67.0216 3.79833 67.3084 3.67929 67.5356 3.44122C67.7629 3.19232 67.8765 2.87309 67.8765 2.48351C67.8765 2.09394 67.7358 1.7747 67.4545 1.52581C67.1731 1.27691 66.816 1.15247 66.3831 1.15247C65.9611 1.15247 65.5986 1.30938 65.2956 1.6232C65.0034 1.93703 64.8573 2.31037 64.8573 2.74323C64.8573 3.17609 64.9926 3.54402 65.2631 3.84702C64.9384 3.78209 64.6084 3.74963 64.2729 3.74963C63.2341 3.74963 62.3521 4.02558 61.6271 4.57748C60.902 5.12937 60.5395 5.91393 60.5395 6.93115C60.5395 8.12152 61.0373 8.99806 62.0329 9.56078C61.4377 9.8205 60.9724 10.1722 60.6369 10.6159C60.483 10.8262 60.3656 11.0427 60.2846 11.2652H59.8735V3.74966C58.8887 3.95526 57.8066 4.05807 56.627 4.05807H56.4454C56.1665 3.85245 55.8398 3.74963 55.4654 3.74963C55.0217 3.74963 54.643 3.87408 54.3291 4.12298C54.0153 4.36105 53.7718 4.67487 53.5987 5.06445H53.5175V3.74963C52.5328 3.95524 51.4506 4.05805 50.2711 4.05805H49.2971V4.31776H50.4496V9.31463L50.1815 9.28484C50.0625 10.367 49.7974 10.9081 49.3862 10.9081C49.1914 10.9081 49.094 10.6862 49.094 10.2425V7.48306C49.094 6.58487 48.9804 5.88147 48.7531 5.37286C48.5258 4.85343 48.093 4.45303 47.4545 4.17167C46.816 3.89031 45.9557 3.74963 44.8736 3.74963C43.8023 3.74963 42.9798 3.9336 42.4063 4.30153C41.8327 4.65864 41.546 5.15102 41.546 5.77867C41.546 6.15742 41.6758 6.48207 41.9355 6.7526C42.2061 7.01232 42.5307 7.14218 42.9095 7.14218C43.2882 7.14218 43.6021 7.02855 43.851 6.8013C44.0998 6.56323 44.2243 6.27646 44.2243 5.94099C44.2243 5.60552 44.1269 5.32416 43.9321 5.09691C43.7481 4.85884 43.5263 4.7398 43.2666 4.7398C43.0069 4.7398 42.8013 4.79391 42.6498 4.90212C42.4983 5.01034 42.4009 5.09691 42.3576 5.16184C42.3251 5.22677 42.3035 5.27547 42.2927 5.30793C42.2818 5.32957 42.271 5.36204 42.2602 5.40533C42.2494 5.43779 42.2331 5.47567 42.2115 5.51895C42.1898 5.55142 42.1466 5.56765 42.0816 5.56765C41.9842 5.56765 41.9355 5.51895 41.9355 5.42156C41.9355 5.08609 42.1682 4.77768 42.6335 4.49632C43.1097 4.21496 43.6562 4.07428 44.273 4.07428C44.5976 4.07428 44.8736 4.1338 45.1008 4.25283C45.3389 4.37187 45.5175 4.50714 45.6365 4.65864C45.8962 4.99411 46.0261 5.68669 46.0261 6.73637V7.27204C42.7039 7.27204 41.0428 8.07824 41.0428 9.69065C41.0428 10.4373 41.3025 10.9838 41.8219 11.3301C42.3522 11.6656 43.0015 11.8333 43.7698 11.8333C44.5489 11.8333 45.1171 11.671 45.4742 11.3463C45.8313 11.0217 46.0856 10.5672 46.2371 9.98283H46.3345C46.3778 10.4914 46.5672 10.9297 46.9026 11.2976C47.2381 11.6548 47.6764 11.8333 48.2174 11.8333C48.7022 11.8333 49.1108 11.7164 49.4432 11.4827V11.5249H54.67V11.2652H53.4526V8.03495C53.4526 5.37286 54.1181 4.04181 55.4492 4.04181C55.5334 4.04181 55.6142 4.04723 55.6917 4.05807H55.6531V4.31779ZM49.6985 11.2652H50.4496V9.49364C50.33 10.2848 50.0796 10.8753 49.6985 11.2652ZM56.8056 4.40259C56.7827 4.3738 56.7585 4.34553 56.733 4.31779H56.8056V4.40259ZM57.2438 2.62963C57.5468 2.92181 57.9094 3.0679 58.3314 3.0679C58.7643 3.0679 59.1268 2.92181 59.419 2.62963C59.722 2.32663 59.8735 1.96411 59.8735 1.54207C59.8735 1.10921 59.7274 0.746685 59.4352 0.454504C59.143 0.151501 58.7805 0 58.3476 0C57.9148 0 57.5468 0.151501 57.2438 0.454504C56.9517 0.746685 56.8056 1.10921 56.8056 1.54207C56.8056 1.96411 56.9517 2.32663 57.2438 2.62963ZM77.1266 11.2652V0.56813H75.9741V0.308413H76.948C78.1276 0.308413 79.2097 0.205609 80.1945 0V11.2652H81.2334V11.2668C81.8779 11.5892 82.9303 12.1348 83.9073 12.6413L83.9074 12.6413L83.9076 12.6414L83.9094 12.6423C84.7563 13.0814 85.5464 13.491 85.9646 13.7001C87.0918 14.2637 89.3442 15.2782 92.2772 15.2782C93.4044 15.2782 96.0346 13.9255 96.3352 13.3619C96.5607 15.2782 95.6827 17.8709 92.6153 17.8709C92.1976 17.8709 91.8074 17.8492 91.4412 17.8094V18.2901H90.0692V23.8453H89.4417V18.2901H88.0654V17.6919H90.6631C88.9445 17.3563 87.801 16.6045 86.761 15.9207C86.4147 15.6931 86.0799 15.4729 85.7392 15.2782C84.161 14.3764 78.5992 11.5583 76.1193 11.5583V11.2653H76.1202V11.2652H77.1266ZM89.1816 11.2652H90.188V11.5249H86.1137V10.4049H86.0326C85.827 10.9243 85.5402 11.2923 85.1723 11.5087C84.8151 11.7251 84.3444 11.8333 83.76 11.8333C82.8078 11.8333 82.0773 11.4492 81.5687 10.6808C81.0709 9.91251 80.822 8.9494 80.822 7.79149C80.822 5.09693 81.8771 3.74966 83.9873 3.74966C84.9721 3.74966 85.6538 4.13382 86.0326 4.90215H86.1137V0.56813H84.9612V0.308413H85.9352C87.1147 0.308413 88.1969 0.205609 89.1816 0V11.2652ZM86.1786 7.79149V7.35322C86.1786 6.40093 86.0542 5.66506 85.8053 5.14563C85.5564 4.61538 85.2697 4.35025 84.945 4.35025C84.642 4.35025 84.4256 4.6262 84.2957 5.1781C84.1658 5.72999 84.1009 6.57407 84.1009 7.71033C84.1009 8.83577 84.155 9.68526 84.2632 10.2588C84.3823 10.8215 84.6095 11.1029 84.945 11.1029C85.3346 11.1029 85.6376 10.762 85.854 10.0802C86.0704 9.38767 86.1786 8.62475 86.1786 7.79149ZM99.5069 5.66506C98.652 5.72999 97.8457 5.77869 97.0882 5.81115V0.56813H98.1271V0.308413H92.5757V0.56813H93.7769V6.1845C92.9869 6.39011 92.3809 6.72557 91.9588 7.1909C91.5368 7.6454 91.3258 8.27846 91.3258 9.09007C91.3258 9.90169 91.5585 10.5618 92.0238 11.0704C92.4891 11.579 93.1492 11.8333 94.0041 11.8333C95.1404 11.8333 95.9358 11.5357 96.3903 10.9406C96.8556 10.3345 97.0882 9.47424 97.0882 8.35962V6.11957L98.3057 6.07087C98.5546 6.06005 98.955 6.033 99.5069 5.98971V11.2652H98.468V11.5249H103.857V11.2652H102.818V5.11317C103.792 4.49634 104.279 3.51699 104.279 2.17512C104.279 1.53666 104.09 1.01722 103.711 0.616826C103.343 0.205609 102.807 0 102.104 0C101.022 0 100.308 0.351699 99.9614 1.0551C99.6584 1.67192 99.5069 2.53224 99.5069 3.63603V5.66506ZM93.7769 10.3724C93.7769 10.9893 93.5767 11.2977 93.1763 11.2977C92.7326 11.2977 92.3647 11.0812 92.0725 10.6484C91.7911 10.2155 91.6504 9.68526 91.6504 9.05761C91.6504 7.74821 92.3592 6.89872 93.7769 6.50914V10.3724ZM102.818 4.69113V1.57453C102.818 1.21742 102.84 0.984758 102.883 0.876543C102.937 0.768328 103.051 0.714221 103.224 0.714221C103.397 0.714221 103.56 0.849489 103.711 1.12003C103.873 1.39057 103.954 1.73144 103.954 2.14266C103.954 3.27892 103.576 4.12841 102.818 4.69113ZM111.341 10.7295C110.551 11.4654 109.518 11.8333 108.241 11.8333C106.964 11.8333 105.93 11.4654 105.14 10.7295C104.351 9.98283 103.956 9.00348 103.956 7.79147C103.956 6.57946 104.351 5.60552 105.14 4.86966C105.93 4.12298 106.964 3.74963 108.241 3.74963C109.518 3.74963 110.551 4.12298 111.341 4.86966C112.131 5.60552 112.526 6.57946 112.526 7.79147C112.526 9.00348 112.131 9.98283 111.341 10.7295ZM109.02 10.7295C109.171 10.1776 109.247 9.19827 109.247 7.79147C109.247 6.38467 109.171 5.41074 109.02 4.86966C108.879 4.31776 108.62 4.04181 108.241 4.04181C107.862 4.04181 107.597 4.31776 107.445 4.86966C107.305 5.41074 107.234 6.38467 107.234 7.79147C107.234 9.19827 107.305 10.1776 107.445 10.7295C107.597 11.2706 107.862 11.5411 108.241 11.5411C108.62 11.5411 108.879 11.2706 109.02 10.7295ZM116.112 14.7389V10.6646H116.193C116.572 11.4329 117.264 11.8171 118.271 11.8171C119.288 11.8171 120.062 11.4383 120.592 10.6808C121.01 10.0876 121.266 9.37177 121.361 8.53339C121.482 9.48891 121.863 10.248 122.505 10.8107C123.295 11.4924 124.409 11.8333 125.848 11.8333C126.801 11.8333 127.574 11.5844 128.17 11.0866C128.765 10.5888 129.138 9.89626 129.29 9.00889L128.997 8.96019L128.965 9.10628C128.824 9.8205 128.51 10.3886 128.023 10.8107C127.547 11.2327 126.979 11.4437 126.319 11.4437C125.67 11.4437 125.221 11.1894 124.972 10.6808C124.734 10.1722 124.615 9.42552 124.615 8.44076H125.686C126.747 8.44076 127.607 8.26762 128.267 7.92133C128.927 7.57504 129.257 6.99068 129.257 6.16824C129.257 5.34581 128.9 4.7398 128.186 4.35023C127.482 3.94983 126.6 3.74963 125.54 3.74963C124.241 3.74963 123.213 4.11215 122.456 4.8372C121.861 5.39763 121.5 6.13464 121.372 7.04822C121.294 6.18657 121.066 5.46039 120.689 4.86966C120.224 4.12298 119.483 3.74963 118.465 3.74963C117.881 3.74963 117.405 3.85785 117.037 4.07428C116.68 4.29071 116.398 4.65864 116.193 5.17807H116.112V3.74963C115.127 3.95524 114.045 4.05805 112.865 4.05805H111.891V4.31776H113.044V14.7389H112.037V14.9986H117.329V14.7389H116.112ZM116.047 8.21351V7.77524C116.047 6.94198 116.155 6.18448 116.371 5.50272C116.588 4.82096 116.891 4.48009 117.28 4.48009C117.616 4.48009 117.838 4.74521 117.946 5.27547C118.065 5.7949 118.124 6.62816 118.124 7.77524C118.124 10.0694 117.843 11.2165 117.28 11.2165C116.956 11.2165 116.669 10.9568 116.42 10.4373C116.171 9.90708 116.047 9.1658 116.047 8.21351ZM124.599 8.14858V6.97986C124.599 5.80031 124.669 5.01575 124.81 4.62618C124.961 4.2366 125.205 4.04181 125.54 4.04181C126.049 4.04181 126.303 4.76145 126.303 6.20071C126.303 6.83918 126.205 7.32614 126.011 7.66161C125.827 7.98626 125.491 8.14858 125.004 8.14858H124.599ZM73.2002 7.79147C73.2002 9.19827 73.1244 10.1776 72.9729 10.7295C72.8322 11.2706 72.5725 11.5411 72.1938 11.5411C71.815 11.5411 71.5499 11.2706 71.3984 10.7295C71.2577 10.1776 71.1874 9.19827 71.1874 7.79147C71.1874 6.38467 71.2577 5.41074 71.3984 4.86966C71.5499 4.31776 71.815 4.04181 72.1938 4.04181C72.5725 4.04181 72.8322 4.31776 72.9729 4.86966C73.1244 5.41074 73.2002 6.38467 73.2002 7.79147ZM63.8996 9.72311C64.0078 9.78804 64.1322 9.8205 64.2729 9.8205C64.4136 9.8205 64.5326 9.78804 64.63 9.72311C64.7383 9.64736 64.8194 9.53373 64.8735 9.38223C64.9385 9.21991 64.9872 9.06841 65.0196 8.92772C65.0629 8.77622 65.09 8.5652 65.1008 8.29467C65.1116 8.02413 65.117 7.8077 65.117 7.64538C65.1278 7.48305 65.1332 7.24498 65.1332 6.93115C65.1332 6.61733 65.1278 6.37926 65.117 6.21694C65.117 6.05461 65.1116 5.83818 65.1008 5.56764C65.09 5.29711 65.0629 5.0915 65.0196 4.95082C64.9872 4.79932 64.9385 4.64782 64.8735 4.49631C64.8194 4.33399 64.7383 4.22037 64.63 4.15544C64.5326 4.07969 64.4136 4.04181 64.2729 4.04181C64.1322 4.04181 64.0078 4.07969 63.8996 4.15544C63.8022 4.22037 63.721 4.33399 63.6561 4.49631C63.602 4.64782 63.5533 4.79932 63.51 4.95082C63.4775 5.0915 63.4559 5.29711 63.4451 5.56764C63.4343 5.83818 63.4234 6.05461 63.4126 6.21694V6.93115V7.64538C63.4234 7.8077 63.4343 8.02413 63.4451 8.29467C63.4559 8.5652 63.4775 8.77622 63.51 8.92772C63.5533 9.06841 63.602 9.21991 63.6561 9.38223C63.721 9.53373 63.8022 9.64736 63.8996 9.72311ZM66.2208 13.3104C65.9178 13.3104 65.2793 13.4078 64.3054 13.6026C63.3315 13.7974 62.6713 13.9056 62.3251 13.9273C62.9311 14.6523 63.7481 15.0148 64.7761 15.0148C65.3389 15.0148 65.8637 14.9012 66.3507 14.6739C66.8484 14.4575 67.0973 14.2032 67.0973 13.911C67.0973 13.5106 66.8052 13.3104 66.2208 13.3104ZM46.0261 7.56422V9.07382C46.0261 9.54997 45.9395 9.99365 45.7664 10.4049C45.5932 10.8161 45.3606 11.0217 45.0684 11.0217C44.7762 11.0217 44.5435 10.8864 44.3704 10.6159C44.1972 10.3345 44.1107 9.89625 44.1107 9.30107C44.1107 8.69507 44.2838 8.25679 44.6301 7.98626C44.9764 7.7049 45.4038 7.56422 45.9125 7.56422H46.0261ZM29.0524 1.34734V8.37591C29.0524 9.30656 29.0903 9.93962 29.1661 10.2751C29.2418 10.6106 29.35 10.827 29.4907 10.9244C29.7721 11.1516 30.2374 11.2653 30.8867 11.2653H31.2763V11.525H26.715V11.2653H26.8936C27.5212 11.2436 27.9865 11.1083 28.2895 10.8594C28.5168 10.6647 28.6575 10.2102 28.7116 9.49594C28.7224 9.23622 28.7278 8.85747 28.7278 8.35968V1.73691C28.7278 1.28241 28.6088 0.973995 28.3707 0.811672C28.1326 0.64935 27.7539 0.568189 27.2344 0.568189V0.308472H32.0879L34.263 5.48657L37.2984 0.308472H41.4539V0.568189H40.415V11.2653H41.4539V11.525H36.1622V11.2653H37.201V1.34734H37.0874L34.4091 5.81121L35.3343 8.00257C35.5832 8.56529 35.7077 9.09013 35.7077 9.5771C35.7077 10.0532 35.5237 10.4753 35.1558 10.8432C34.7878 11.2003 34.2955 11.3789 33.6786 11.3789C32.4017 11.3789 31.7632 10.9136 31.7632 9.98291C31.7632 9.70155 31.9526 9.25245 32.3314 8.63563L29.1661 1.34734H29.0524ZM32.4775 8.99274C32.2069 9.4256 32.0716 9.76107 32.0716 9.99914C32.0716 10.2372 32.1366 10.4374 32.2664 10.5997C32.3963 10.7621 32.5207 10.8432 32.6398 10.8432C32.7588 10.8432 32.8508 10.8053 32.9157 10.7296C32.9915 10.6538 33.0294 10.5348 33.0294 10.3725C33.0294 10.2102 32.9482 9.96667 32.7859 9.64203L32.4937 8.97651L32.4775 8.99274ZM110.71 17.6919V23.8453H111.346V19.1936L115.404 23.8453H115.542V17.6919H114.935V22.4021L110.844 17.6919H110.71ZM103.194 17.5371C104.126 17.5371 104.905 17.8481 105.533 18.4699C106.16 19.0918 106.474 19.8573 106.474 20.7665C106.474 21.6672 106.16 22.4314 105.533 23.0588C104.908 23.6863 104.145 24 103.244 24C102.332 24 101.563 23.6877 100.935 23.063C100.308 22.4383 99.9941 21.6826 99.9941 20.7958C99.9941 20.2045 100.136 19.6566 100.421 19.1518C100.708 18.647 101.098 18.2524 101.592 17.968C102.086 17.6807 102.62 17.5371 103.194 17.5371ZM103.223 18.1395C102.769 18.1395 102.338 18.258 101.931 18.495C101.524 18.7321 101.206 19.0514 100.977 19.453C100.748 19.8546 100.634 20.3022 100.634 20.7958C100.634 21.5264 100.886 22.1441 101.391 22.6489C101.899 23.1509 102.51 23.4018 103.223 23.4018C103.7 23.4018 104.141 23.2861 104.545 23.0546C104.952 22.8232 105.269 22.5067 105.495 22.1051C105.724 21.7035 105.838 21.2573 105.838 20.7665C105.838 20.2784 105.724 19.8378 105.495 19.4446C105.269 19.0486 104.95 18.7321 104.537 18.495C104.124 18.258 103.686 18.1395 103.223 18.1395ZM95.8494 17.6919H95.2345V23.8453H95.8494V17.6919ZM84.7198 23.8453L81.8502 17.6919H81.6996L78.7923 23.8453H79.4783L80.4405 21.8206H83.0926L84.0589 23.8453H84.7198ZM80.7166 21.2266L81.7749 18.997L82.8207 21.2266H80.7166ZM69.9626 23.8453V17.6919H71.2384C72.1587 17.6919 72.8266 17.7658 73.2421 17.9136C73.8389 18.1228 74.3046 18.4853 74.6393 19.0012C74.9767 19.5171 75.1455 20.132 75.1455 20.846C75.1455 21.4623 75.0116 22.0047 74.7439 22.4732C74.4789 22.9417 74.1331 23.2875 73.7065 23.5106C73.2826 23.7337 72.6872 23.8453 71.9203 23.8453H69.9626ZM70.5524 23.2638H71.2635C72.1141 23.2638 72.7039 23.2108 73.033 23.1049C73.4959 22.9543 73.8598 22.6838 74.1248 22.2933C74.3897 21.9001 74.5222 21.4205 74.5222 20.8543C74.5222 20.2603 74.3786 19.7528 74.0913 19.3317C73.8041 18.9106 73.4039 18.6219 72.8908 18.4658C72.5059 18.3486 71.8715 18.2901 70.9874 18.2901H70.5524V23.2638ZM60.6267 17.6919V23.8453H61.2625V19.1936L65.3201 23.8453H65.4582V17.6919H64.8516V22.4021L60.7605 17.6919H60.6267ZM52.0312 17.6919H52.6461V21.4065C52.6461 21.8471 52.6545 22.1218 52.6712 22.2306C52.7019 22.4732 52.773 22.6768 52.8846 22.8413C52.9961 23.0031 53.1676 23.1397 53.3991 23.2513C53.6306 23.36 53.8634 23.4144 54.0977 23.4144C54.3012 23.4144 54.4965 23.3712 54.6833 23.2847C54.8701 23.1983 55.0263 23.0784 55.1518 22.925C55.2773 22.7716 55.3693 22.5861 55.4279 22.3686C55.4697 22.2125 55.4906 21.8917 55.4906 21.4065V17.6919H56.1056V21.4065C56.1056 21.9559 56.0512 22.4007 55.9424 22.7409C55.8364 23.0784 55.6217 23.3726 55.2982 23.6236C54.9775 23.8745 54.5885 24 54.1311 24C53.6347 24 53.2094 23.8815 52.8553 23.6445C52.5011 23.4074 52.2641 23.0937 52.1441 22.7033C52.0689 22.4634 52.0312 22.0312 52.0312 21.4065V17.6919ZM46.8366 18.4699C46.2091 17.8481 45.4297 17.5371 44.4982 17.5371C43.9237 17.5371 43.3897 17.6807 42.8961 17.968C42.4025 18.2524 42.0121 18.647 41.7248 19.1518C41.4404 19.6566 41.2981 20.2045 41.2981 20.7958C41.2981 21.6826 41.6119 22.4383 42.2393 23.063C42.8668 23.6877 43.6365 24 44.5484 24C45.4492 24 46.2119 23.6863 46.8366 23.0588C47.4641 22.4314 47.7778 21.6672 47.7778 20.7665C47.7778 19.8573 47.4641 19.0918 46.8366 18.4699ZM43.2349 18.495C43.6421 18.258 44.0729 18.1395 44.5275 18.1395C44.9904 18.1395 45.4283 18.258 45.841 18.495C46.2537 18.7321 46.5731 19.0486 46.7989 19.4446C47.0276 19.8378 47.142 20.2784 47.142 20.7665C47.142 21.2573 47.0276 21.7035 46.7989 22.1051C46.5731 22.5067 46.2565 22.8232 45.8494 23.0546C45.445 23.2861 45.0044 23.4018 44.5275 23.4018C43.8136 23.4018 43.2029 23.1509 42.6953 22.6489C42.1905 22.1441 41.9382 21.5264 41.9382 20.7958C41.9382 20.3022 42.0525 19.8546 42.2812 19.453C42.5099 19.0514 42.8278 18.7321 43.2349 18.495ZM34.4094 17.6919H37.4923V18.2984H35.0201V20.2227H37.4923V20.8292H35.0201V23.8453H34.4094V17.6919ZM16.109 3.20288C16.3608 2.36279 17.1069 1.68472 17.7877 1.06601L17.7878 1.06598C17.9814 0.889985 18.1698 0.718797 18.34 0.550049C16.3537 1.03457 13.3293 2.14083 12.5858 3.58755C12.2241 4.29128 12.4656 4.97195 12.9746 5.50895C13.6972 6.27129 15.0492 6.82748 16.4572 7.40674C18.7493 8.34966 21.19 9.35372 21.3065 11.4075C21.3573 12.3034 20.1163 13.0763 19.4625 13.4746C20.364 13.6568 21.0253 14.8615 21.1017 15.7102C22.8509 14.7388 24.7312 12.7088 24.317 10.5871C23.907 8.48864 21.4199 7.29526 19.2502 6.25421C18.3583 5.82626 17.5201 5.42405 16.9018 4.99529C16.3096 4.58458 15.8883 3.93968 16.109 3.20288ZM1.37598 12.4554C2.26427 12.7145 3.23779 12.9986 4.09967 12.7816C4.8555 12.5911 5.2025 11.9046 5.25771 11.1935C5.31532 10.4511 5.23717 9.53615 5.15401 8.56269V8.56268C4.95173 6.19457 4.71984 3.47998 6.34088 2.05911C7.98003 0.622636 10.7136 1.17401 12.4565 2.15641C11.7551 2.65538 11.0426 3.83142 11.345 4.68721C10.6629 4.33806 9.35332 3.68397 8.59768 4.18555C6.8654 5.3354 7.23868 7.91378 7.58922 10.3352C7.80457 11.8227 8.01134 13.251 7.7161 14.2524C7.50807 14.9577 7.03783 15.5105 6.2387 15.5648C4.59589 15.6764 2.08256 13.6844 0.643127 12.2524C0.877492 12.31 1.12329 12.3817 1.37598 12.4554ZM19.4717 20.6508C19.2588 19.763 19.0255 18.79 18.406 18.1613C17.8627 17.6101 17.0852 17.6546 16.4309 17.9608C15.7479 18.2804 14.9803 18.8017 14.1636 19.3564C12.1768 20.7058 9.89936 22.2526 7.84163 21.5733C5.76114 20.8863 4.88902 18.2765 4.88902 16.2991C5.67729 16.6506 7.06789 16.6752 7.67195 15.9916C7.7031 16.7479 7.77717 18.1919 8.59469 18.5884C10.4688 19.4974 12.556 17.8975 14.5161 16.3949C15.7202 15.4719 16.8764 14.5856 17.9058 14.3404C18.6308 14.1677 19.3516 14.2949 19.7965 14.9508C20.7111 16.2991 20.204 19.4364 19.6569 21.3779C19.5912 21.149 19.5323 20.9033 19.4717 20.6508ZM2.1286 11.5577C3.30419 11.5577 4.25719 10.6047 4.25719 9.42913C4.25719 8.25354 3.30419 7.30054 2.1286 7.30054C0.953005 7.30054 0 8.25354 0 9.42913C0 10.6047 0.953005 11.5577 2.1286 11.5577ZM21.8051 3.51068C21.8051 4.68627 20.8521 5.63927 19.6765 5.63927C18.5009 5.63927 17.5479 4.68627 17.5479 3.51068C17.5479 2.33509 18.5009 1.38208 19.6765 1.38208C20.8521 1.38208 21.8051 2.33509 21.8051 3.51068ZM16.0943 23.4466C17.2699 23.4466 18.2229 22.4936 18.2229 21.3181C18.2229 20.1425 17.2699 19.1895 16.0943 19.1895C14.9187 19.1895 13.9657 20.1425 13.9657 21.3181C13.9657 22.4936 14.9187 23.4466 16.0943 23.4466ZM14.3532 7.35229H14.7695H15.1857C15.1857 7.40535 15.1311 7.50831 15.0144 7.50883C14.689 7.51033 14.6876 7.51459 14.6557 8.58335C14.6174 9.87027 14.4313 10.2729 13.3967 10.6241C12.7179 10.8545 12.4429 10.9498 12.1706 11.2288C11.7559 11.6537 11.5673 12.2426 11.6167 12.9584C11.6957 14.1042 12.2307 14.7156 13.1599 14.7222C13.928 14.7277 14.2102 14.1459 14.2276 13.4719C14.2399 13.0008 14.226 12.7757 14.1817 12.7231C14.1383 12.6716 14.0108 12.6478 13.7776 12.6478C13.5285 12.6478 13.4588 12.6111 13.4588 12.504L14.5429 12.504L15.5743 12.504C15.5528 12.5592 15.4689 12.6478 15.2961 12.6478C15.16 12.6478 15.0202 12.6759 14.9854 12.7101C14.9407 12.754 14.9221 13.0521 14.9221 13.7194V14.6985C14.8973 14.7137 14.7577 14.6936 14.6667 14.6598C14.5313 14.6095 14.4417 14.6149 14.1713 14.6898C13.1385 14.9761 12.6298 14.9741 12.0008 14.6808C11.3646 14.3842 10.9275 13.8054 10.862 13.1151C10.8472 12.9594 10.8359 12.8623 10.8281 12.8036C10.8262 12.7895 10.8332 12.7807 10.8449 12.7755L10.9411 12.7776C10.9938 12.7776 10.9844 12.6613 10.9411 12.6613H10.6511L10.0539 12.6612C9.2538 12.6612 9.02986 12.6613 9.02986 12.6613C9.02986 12.5998 9.16062 12.5775 9.31163 12.5517C9.48215 12.5226 9.67849 12.4891 9.74153 12.3897C9.7689 12.3466 9.79116 12.2398 9.82096 11.921L10.0596 7.92338C10.0427 7.5542 9.94851 7.52959 9.7235 7.52959C9.59653 7.52959 9.49782 7.45613 9.49782 7.35536C9.49782 7.35536 9.91247 7.35229 10.015 7.35229H10.4205L12.3405 9.53281L14.3532 7.35229ZM12.1014 10.104L11.1081 9.05264L10.4436 8.33878L10.2485 10.9526C10.2485 10.9526 10.1312 12.2326 10.1915 12.408C10.221 12.4941 10.3281 12.5031 10.4516 12.5135L10.4516 12.5135C10.486 12.5164 10.5217 12.5194 10.5573 12.5242C10.7929 12.5559 10.8045 12.5029 10.8351 12.3629L10.8366 12.3561C10.9268 11.9443 11.1554 11.5233 11.4394 11.2461C11.7781 10.9157 12.0747 10.7592 12.5825 10.6431C13.2602 10.4882 13.4785 10.4184 13.6599 10.2981C14.3157 9.8633 14.043 7.97624 14.043 7.97624L12.1014 10.104Z"
    fill="black"
  />
</svg>
